<?xml version="1.0" encoding="utf-8"?>
<!DOCTYPE svg PUBLIC "-//W3C//DTD SVG 20010904//EN" "http://www.w3.org/TR/2001/REC-SVG-20010904/DTD/svg10.dtd">
<svg height="596.000000pt" preserveAspectRatio="xMidYMid meet" version="1.0" viewBox="0 0 681.000000 596.000000" width="681.000000pt" xmlns="http://www.w3.org/2000/svg"><rect fill="#FFFFFF" height="100%" id="background" width="100%" x="0" y="0"/>
<g fill="#273646" stroke="none" transform="translate(0.000000,596.000000) scale(0.100000,-0.100000)">
<path d="M2678 4773 l-787 -786 -56 44 c-125 99 -156 112 -203 85 -13 -7 -294 -286 -624 -621 -409 -415 -596 -611 -589 -618 7 -7 15 -7 23 0 91 68 780 624 958 772 129 108 238 196 242 196 4 0 37 -49 72 -110 l65 -109 -15 -35 c-8 -20 -40 -93 -71 -164 -30 -70 -53 -130 -50 -133 2 -3 72 25 154 61 l150 66 239 -137 c131 -75 298 -172 370 -215 73 -43 137 -79 143 -79 16 0 13 11 -10 36 -12 12 -169 213 -350 446 l-328 423 737 737 c677 678 737 736 744 713 12 -47 37 -269 44 -390 8 -135 -8 -365 -35 -525 -10 -58 -16 -109 -13 -114 3 -6 83 70 177 169 l171 178 101 -154 c55 -85 123 -190 150 -234 l50 -80 -22 -30 c-82 -110 -521 -732 -523 -742 -2 -7 0 -13 5 -13 4 0 238 230 520 512 333 333 514 507 517 498 3 -8 41 -164 86 -346 45 -182 89 -344 99 -360 22 -37 490 -534 502 -534 14 0 11 26 -25 265 -19 121 -33 221 -32 222 2 2 43 -32 92 -74 195 -168 828 -693 942 -782 48 -38 74 -32 51 10 -7 13 -141 168 -299 344 -397 444 -792 890 -1077 1216 -133 152 -249 279 -258 283 -50 19 -76 7 -170 -79 l-92 -85 -39 48 c-355 426 -822 977 -841 992 -16 13 -41 20 -67 20 -41 0 -41 0 -828 -787z"/>
<path d="M655 2616 c-116 -30 -196 -92 -238 -185 -31 -69 -29 -199 3 -266 42 -86 97 -129 275 -215 109 -52 174 -90 197 -114 76 -78 70 -200 -12 -269 -79 -67 -257 -62 -332 10 -31 30 -63 100 -79 172 -11 51 -11 51 -50 51 l-39 0 6 -152 c4 -84 9 -156 13 -160 3 -3 38 -16 76 -28 97 -31 285 -39 375 -16 193 49 293 161 294 331 1 68 -3 88 -27 137 -43 87 -106 137 -291 228 -101 51 -173 93 -193 114 -92 99 -48 240 87 280 63 19 91 20 145 5 60 -17 111 -74 131 -147 17 -60 18 -62 51 -62 l34 0 -3 127 -3 127 -60 19 c-77 25 -286 33 -360 13z"/>
<path d="M1972 2604 c-25 -17 -52 -64 -52 -89 0 -35 32 -84 67 -100 73 -35 151 7 160 88 5 43 3 49 -30 82 -29 29 -42 35 -79 35 -24 0 -54 -7 -66 -16z"/>
<path d="M1443 2473 c-41 -114 -81 -169 -168 -229 -69 -47 -69 -67 0 -68 l50 -1 5 -315 c5 -328 6 -335 52 -376 89 -81 231 -69 343 30 49 43 50 44 32 64 -18 20 -19 20 -60 1 -61 -27 -122 -25 -152 6 l-25 24 0 276 c0 151 1 278 3 283 1 4 47 7 102 7 l100 0 3 43 3 42 -108 0 -108 0 0 112 0 113 -33 3 c-24 2 -34 -1 -39 -15z"/>
<path d="M1960 2256 c-118 -30 -125 -34 -128 -58 -2 -20 2 -28 20 -33 13 -4 42 -14 66 -22 l42 -16 0 -266 c0 -192 -4 -273 -13 -291 -8 -17 -28 -30 -60 -40 -41 -13 -47 -18 -47 -42 l0 -28 210 0 210 0 0 29 c0 26 -4 30 -39 36 -77 13 -75 3 -81 404 l-5 356 -25 2 c-14 1 -81 -13 -150 -31z"/>
<path d="M2611 2274 c-195 -71 -303 -271 -271 -504 26 -194 158 -323 344 -337 136 -10 240 30 333 130 54 60 55 60 35 80 -20 19 -20 19 -64 -11 -122 -84 -293 -80 -374 10 -34 37 -64 104 -70 155 -3 27 -7 61 -10 77 l-4 29 261 -5 261 -5 -4 86 c-7 139 -59 225 -165 278 -71 34 -202 43 -272 17z m180 -80 c36 -18 65 -85 73 -161 l6 -63 -169 0 -168 0 9 58 c9 56 42 127 72 151 47 39 119 45 177 15z"/>
<path d="M3290 2256 c-118 -30 -125 -33 -128 -58 -3 -24 2 -28 38 -38 23 -6 53 -16 66 -22 l24 -11 0 -274 0 -274 -24 -24 c-13 -13 -40 -27 -60 -30 -31 -6 -36 -11 -36 -36 l0 -29 220 0 220 0 0 29 c0 26 -4 30 -41 36 -22 4 -52 17 -67 30 l-27 23 -3 215 -3 215 31 35 c58 66 125 83 195 47 22 -11 41 -20 42 -20 2 0 17 21 33 47 56 89 30 160 -63 170 -78 9 -161 -52 -210 -154 l-22 -45 -5 98 c-5 97 -6 99 -30 101 -14 1 -81 -13 -150 -31z"/>
<path d="M4125 2273 c-109 -40 -203 -131 -246 -240 -31 -77 -34 -270 -6 -349 73 -210 295 -306 512 -224 44 17 77 41 129 92 l70 68 -21 21 -21 21 -47 -32 c-118 -81 -261 -81 -350 1 -52 48 -82 114 -91 204 l-7 67 259 -3 259 -4 -1 76 c-2 129 -62 232 -169 287 -67 34 -195 41 -270 15z m185 -83 c41 -28 62 -76 68 -151 l5 -69 -168 0 -167 0 7 48 c9 63 36 121 71 154 52 47 131 55 184 18z"/>
<path d="M4936 2274 c-143 -44 -226 -162 -213 -304 8 -91 52 -158 135 -208 l33 -20 -32 -11 c-120 -42 -179 -170 -110 -239 16 -15 44 -33 63 -38 l33 -10 -35 -18 c-44 -23 -97 -73 -116 -108 -8 -15 -14 -46 -14 -69 0 -60 59 -117 155 -150 61 -21 88 -24 205 -23 113 0 145 4 194 22 83 31 137 64 180 113 50 54 68 100 68 170 0 62 -16 100 -59 141 -52 49 -101 60 -309 67 -169 5 -194 8 -213 25 -25 23 -26 35 -4 81 16 33 19 35 52 28 20 -5 74 -8 121 -8 72 0 95 5 148 29 78 36 144 105 162 171 18 64 8 154 -24 211 -14 26 -26 48 -26 49 0 2 42 2 93 1 l92 -1 3 53 3 52 -33 -1 c-18 0 -76 -8 -128 -19 -52 -10 -99 -14 -105 -10 -47 37 -230 51 -319 24z m213 -90 c43 -36 65 -115 59 -213 -7 -122 -47 -172 -138 -175 -56 -1 -93 21 -125 75 -28 47 -29 217 -2 267 40 73 146 97 206 46z m-69 -769 c157 -6 201 -16 230 -52 55 -71 -16 -168 -149 -203 -24 -6 -80 -12 -123 -12 -106 0 -163 27 -196 92 -26 53 -23 84 17 146 22 36 30 41 56 38 17 -2 91 -6 165 -9z"/>
<path d="M5843 2272 c-114 -41 -183 -112 -204 -210 -26 -129 23 -240 137 -308 18 -11 17 -13 -11 -24 -80 -31 -135 -99 -135 -168 0 -49 29 -86 80 -104 38 -13 38 -22 0 -38 -16 -7 -50 -34 -75 -61 -42 -45 -45 -52 -45 -103 0 -68 27 -103 101 -135 155 -67 365 -67 509 0 181 84 254 269 154 388 -47 57 -115 73 -331 80 -168 6 -194 9 -212 25 -25 23 -26 35 -4 80 14 31 20 35 42 28 14 -4 67 -7 116 -6 108 0 181 25 248 84 91 80 112 211 53 327 l-26 53 88 -6 89 -7 6 39 c12 71 11 74 -30 74 -21 -1 -78 -9 -127 -19 -89 -18 -90 -18 -135 2 -66 30 -217 34 -288 9z m197 -77 c42 -22 71 -84 77 -169 7 -90 -9 -150 -50 -191 -65 -65 -174 -49 -212 31 -23 47 -32 180 -16 234 13 45 46 89 75 100 34 14 95 11 126 -5z m138 -800 c47 -19 62 -39 62 -83 0 -103 -179 -186 -345 -160 -99 15 -152 59 -162 134 -4 32 1 47 28 88 l33 49 170 -6 c128 -4 182 -9 214 -22z"/>
<path d="M5372 924 c-115 -57 -139 -205 -45 -272 16 -11 62 -32 103 -46 100 -36 120 -50 120 -85 0 -76 -121 -95 -194 -30 l-34 29 -35 -42 c-34 -41 -35 -44 -19 -62 9 -10 44 -32 77 -47 140 -67 291 -15 325 112 12 45 6 90 -18 131 -19 32 -82 67 -175 98 -77 25 -106 55 -87 89 25 47 105 56 162 17 l35 -24 41 33 41 32 -32 31 c-70 67 -174 82 -265 36z"/>
<path d="M1100 640 l0 -290 60 0 60 0 0 110 0 110 34 0 c32 0 37 -6 104 -110 l71 -110 71 0 70 0 -63 88 c-109 150 -103 136 -63 160 85 50 102 195 33 271 -45 49 -91 61 -239 61 l-138 0 0 -290z m274 168 c40 -36 43 -70 9 -108 -25 -28 -36 -33 -96 -37 l-67 -6 0 87 0 86 64 0 c53 0 69 -4 90 -22z"/>
<path d="M1830 640 l0 -290 175 0 175 0 0 39 c0 22 2 45 5 53 4 10 -18 12 -115 10 l-120 -4 0 76 0 76 100 0 100 0 0 50 0 50 -100 0 -100 0 0 65 0 65 116 0 117 0 -7 31 c-3 17 -6 40 -6 50 0 18 -10 19 -170 19 l-170 0 0 -290z"/>
<path d="M2478 640 l3 -290 61 0 61 0 -6 197 c-4 108 -3 192 2 187 4 -5 68 -93 141 -197 l134 -187 55 0 56 0 -3 290 -3 290 -61 0 -61 0 6 -195 c3 -107 4 -195 2 -195 -1 0 -15 19 -30 43 -16 23 -78 111 -139 195 l-110 152 -56 0 -55 0 3 -290z"/>
<path d="M3270 880 l0 -50 70 0 70 0 0 -240 0 -240 60 0 60 0 0 240 0 240 69 0 c75 0 81 5 81 73 l0 27 -205 0 -205 0 0 -50z"/>
<path d="M3966 673 c-55 -142 -105 -273 -113 -290 l-13 -33 64 0 64 0 24 65 23 65 115 0 115 0 23 -65 24 -65 65 0 c48 0 64 3 59 13 -3 6 -54 137 -113 289 l-108 277 -65 1 -65 0 -99 -257z m206 17 l36 -110 -80 0 c-44 0 -78 4 -76 8 2 5 19 55 38 110 19 56 37 102 40 102 3 0 22 -49 42 -110z"/>
<path d="M4680 640 l0 -290 170 0 170 0 0 53 0 52 -110 -3 -110 -4 0 241 0 241 -60 0 -60 0 0 -290z"/>
</g>
</svg>